<?xml version="1.0" encoding="UTF-8" standalone="no"?>
<!DOCTYPE svg PUBLIC "-//W3C//DTD SVG 1.1//EN"
 "http://www.w3.org/Graphics/SVG/1.1/DTD/svg11.dtd">
<!-- Generated by graphviz version 2.47.0 (20210316.0004)
 -->
<!-- Title: dependencies Pages: 1 -->
<svg width="808pt" height="284pt"
 viewBox="0.00 0.00 808.00 284.00" xmlns="http://www.w3.org/2000/svg" xmlns:xlink="http://www.w3.org/1999/xlink">
<g id="graph0" class="graph" transform="scale(1 1) rotate(0) translate(4 280)">
<title>dependencies</title>
<polygon fill="white" stroke="transparent" points="-4,4 -4,-280 804,-280 804,4 -4,4"/>
<text text-anchor="start" x="379.01" y="-42.4" font-family="Times-12" font-weight="bold" font-size="14.00">Legend</text>
<polygon fill="#ffffb3" stroke="transparent" points="166,-10 166,-30 186,-30 186,-10 166,-10"/>
<text text-anchor="start" x="189.63" y="-15.4" font-family="Times-12" font-size="14.00"> &#160;Declarations</text>
<polygon fill="#8dd3c7" stroke="transparent" points="279,-10 279,-30 299,-30 299,-10 279,-10"/>
<text text-anchor="start" x="302.73" y="-15.4" font-family="Times-12" font-size="14.00"> &#160;Module</text>
<polygon fill="#80b1d3" stroke="transparent" points="365,-10 365,-30 385,-30 385,-10 365,-10"/>
<text text-anchor="start" x="388.78" y="-15.4" font-family="Times-12" font-size="14.00"> &#160;Bootstrap</text>
<polygon fill="#fdb462" stroke="transparent" points="462,-10 462,-30 482,-30 482,-10 462,-10"/>
<text text-anchor="start" x="485.67" y="-15.4" font-family="Times-12" font-size="14.00"> &#160;Providers</text>
<polygon fill="#fb8072" stroke="transparent" points="558,-10 558,-30 578,-30 578,-10 558,-10"/>
<text text-anchor="start" x="581.73" y="-15.4" font-family="Times-12" font-size="14.00"> &#160;Exports</text>
<g id="clust1" class="cluster">
<title>cluster_AppModule</title>
<polygon fill="none" stroke="black" stroke-dasharray="1,5" points="8,-70 8,-268 792,-268 792,-70 8,-70"/>
</g>
<g id="clust2" class="cluster">
<title>cluster_AppModule_declarations</title>
<polygon fill="none" stroke="black" points="300,-78 300,-130 784,-130 784,-78 300,-78"/>
</g>
<g id="clust9" class="cluster">
<title>cluster_AppModule_providers</title>
<polygon fill="none" stroke="black" points="168,-78 168,-130 292,-130 292,-78 168,-78"/>
</g>
<g id="clust6" class="cluster">
<title>cluster_AppModule_imports</title>
<polygon fill="none" stroke="black" points="16,-78 16,-130 160,-130 160,-78 16,-78"/>
</g>
<g id="clust8" class="cluster">
<title>cluster_AppModule_bootstrap</title>
<polygon fill="none" stroke="black" points="327,-208 327,-260 451,-260 451,-208 327,-208"/>
</g>
<!-- AppComponent -->
<g id="node1" class="node">
<title>AppComponent</title>
<polygon fill="#ffffb3" stroke="black" points="775.94,-122 670.06,-122 670.06,-86 775.94,-86 775.94,-122"/>
<text text-anchor="middle" x="723" y="-99.8" font-family="Times,serif" font-size="14.00">AppComponent</text>
</g>
<!-- AppModule -->
<g id="node4" class="node">
<title>AppModule</title>
<polygon fill="#8dd3c7" stroke="black" points="430.66,-187 427.66,-191 406.66,-191 403.66,-187 347.34,-187 347.34,-151 430.66,-151 430.66,-187"/>
<text text-anchor="middle" x="389" y="-164.8" font-family="Times,serif" font-size="14.00">AppModule</text>
</g>
<!-- AppComponent&#45;&gt;AppModule -->
<g id="edge1" class="edge">
<title>AppComponent&#45;&gt;AppModule</title>
<path fill="none" stroke="black" d="M723,-122.28C723,-143.32 723,-175 723,-175 723,-175 440.96,-175 440.96,-175"/>
<polygon fill="black" stroke="black" points="440.96,-171.5 430.96,-175 440.96,-178.5 440.96,-171.5"/>
</g>
<!-- DefaultHeaderComponent -->
<g id="node2" class="node">
<title>DefaultHeaderComponent</title>
<polygon fill="#ffffb3" stroke="black" points="651.72,-122 488.28,-122 488.28,-86 651.72,-86 651.72,-122"/>
<text text-anchor="middle" x="570" y="-99.8" font-family="Times,serif" font-size="14.00">DefaultHeaderComponent</text>
</g>
<!-- DefaultHeaderComponent&#45;&gt;AppModule -->
<g id="edge2" class="edge">
<title>DefaultHeaderComponent&#45;&gt;AppModule</title>
<path fill="none" stroke="black" d="M570,-122.02C570,-139.37 570,-163 570,-163 570,-163 440.98,-163 440.98,-163"/>
<polygon fill="black" stroke="black" points="440.98,-159.5 430.98,-163 440.98,-166.5 440.98,-159.5"/>
</g>
<!-- DefaultLayoutComponent -->
<g id="node3" class="node">
<title>DefaultLayoutComponent</title>
<polygon fill="#ffffb3" stroke="black" points="470.47,-122 307.53,-122 307.53,-86 470.47,-86 470.47,-122"/>
<text text-anchor="middle" x="389" y="-99.8" font-family="Times,serif" font-size="14.00">DefaultLayoutComponent</text>
</g>
<!-- DefaultLayoutComponent&#45;&gt;AppModule -->
<g id="edge3" class="edge">
<title>DefaultLayoutComponent&#45;&gt;AppModule</title>
<path fill="none" stroke="black" d="M389,-122.11C389,-122.11 389,-140.99 389,-140.99"/>
<polygon fill="black" stroke="black" points="385.5,-140.99 389,-150.99 392.5,-140.99 385.5,-140.99"/>
</g>
<!-- AppComponent  -->
<g id="node6" class="node">
<title>AppComponent </title>
<polygon fill="#80b1d3" stroke="black" points="443.44,-252 334.56,-252 334.56,-216 443.44,-216 443.44,-252"/>
<text text-anchor="middle" x="389" y="-229.8" font-family="Times,serif" font-size="14.00">AppComponent </text>
</g>
<!-- AppModule&#45;&gt;AppComponent  -->
<g id="edge5" class="edge">
<title>AppModule&#45;&gt;AppComponent </title>
<path fill="none" stroke="black" stroke-dasharray="1,5" d="M389,-187.11C389,-187.11 389,-205.99 389,-205.99"/>
<polygon fill="black" stroke="black" points="385.5,-205.99 389,-215.99 392.5,-205.99 385.5,-205.99"/>
</g>
<!-- AppRoutingModule -->
<g id="node5" class="node">
<title>AppRoutingModule</title>
<polygon fill="#8dd3c7" stroke="black" points="152.27,-122 149.27,-126 128.27,-126 125.27,-122 23.73,-122 23.73,-86 152.27,-86 152.27,-122"/>
<text text-anchor="middle" x="88" y="-99.8" font-family="Times,serif" font-size="14.00">AppRoutingModule</text>
</g>
<!-- AppRoutingModule&#45;&gt;AppModule -->
<g id="edge4" class="edge">
<title>AppRoutingModule&#45;&gt;AppModule</title>
<path fill="none" stroke="black" d="M88,-122.28C88,-143.32 88,-175 88,-175 88,-175 337.15,-175 337.15,-175"/>
<polygon fill="black" stroke="black" points="337.15,-178.5 347.15,-175 337.15,-171.5 337.15,-178.5"/>
</g>
<!-- AppConfig -->
<g id="node7" class="node">
<title>AppConfig</title>
<ellipse fill="#fdb462" stroke="black" cx="230" cy="-104" rx="54.48" ry="18"/>
<text text-anchor="middle" x="230" y="-99.8" font-family="Times,serif" font-size="14.00">AppConfig</text>
</g>
<!-- AppConfig&#45;&gt;AppModule -->
<g id="edge6" class="edge">
<title>AppConfig&#45;&gt;AppModule</title>
<path fill="none" stroke="black" d="M230,-122.02C230,-139.37 230,-163 230,-163 230,-163 337.22,-163 337.22,-163"/>
<polygon fill="black" stroke="black" points="337.22,-166.5 347.22,-163 337.22,-159.5 337.22,-166.5"/>
</g>
</g>
</svg>
