<?xml version="1.0" encoding="UTF-8" standalone="no"?>
<!DOCTYPE svg PUBLIC "-//W3C//DTD SVG 1.1//EN"
 "http://www.w3.org/Graphics/SVG/1.1/DTD/svg11.dtd">
<!-- Generated by graphviz version 2.47.0 (20210316.0004)
 -->
<!-- Title: dependencies Pages: 1 -->
<svg width="504pt" height="276pt"
 viewBox="0.00 0.00 504.00 276.00" xmlns="http://www.w3.org/2000/svg" xmlns:xlink="http://www.w3.org/1999/xlink">
<g id="graph0" class="graph" transform="scale(1 1) rotate(0) translate(4 272)">
<title>dependencies</title>
<polygon fill="white" stroke="transparent" points="-4,4 -4,-272 500,-272 500,4 -4,4"/>
<text text-anchor="start" x="227.01" y="-42.4" font-family="Times-12" font-weight="bold" font-size="14.00">Legend</text>
<polygon fill="#ffffb3" stroke="transparent" points="14,-10 14,-30 34,-30 34,-10 14,-10"/>
<text text-anchor="start" x="37.63" y="-15.4" font-family="Times-12" font-size="14.00"> &#160;Declarations</text>
<polygon fill="#8dd3c7" stroke="transparent" points="127,-10 127,-30 147,-30 147,-10 127,-10"/>
<text text-anchor="start" x="150.73" y="-15.4" font-family="Times-12" font-size="14.00"> &#160;Module</text>
<polygon fill="#80b1d3" stroke="transparent" points="213,-10 213,-30 233,-30 233,-10 213,-10"/>
<text text-anchor="start" x="236.78" y="-15.4" font-family="Times-12" font-size="14.00"> &#160;Bootstrap</text>
<polygon fill="#fdb462" stroke="transparent" points="310,-10 310,-30 330,-30 330,-10 310,-10"/>
<text text-anchor="start" x="333.67" y="-15.4" font-family="Times-12" font-size="14.00"> &#160;Providers</text>
<polygon fill="#fb8072" stroke="transparent" points="406,-10 406,-30 426,-30 426,-10 406,-10"/>
<text text-anchor="start" x="429.73" y="-15.4" font-family="Times-12" font-size="14.00"> &#160;Exports</text>
<g id="clust1" class="cluster">
<title>cluster_IconsModule</title>
<polygon fill="none" stroke="black" stroke-dasharray="1,5" points="76,-70 76,-260 420,-260 420,-70 76,-70"/>
</g>
<g id="clust4" class="cluster">
<title>cluster_IconsModule_imports</title>
<polygon fill="none" stroke="black" points="262,-143 262,-195 412,-195 412,-143 262,-143"/>
</g>
<g id="clust3" class="cluster">
<title>cluster_IconsModule_CoreUIIconsComponent_providers</title>
<polygon fill="none" stroke="black" points="84,-78 84,-195 254,-195 254,-78 84,-78"/>
</g>
<!-- CoreUIIconsComponent -->
<g id="node1" class="node">
<title>CoreUIIconsComponent</title>
<polygon fill="#ffffb3" stroke="black" points="245.63,-187 92.37,-187 92.37,-151 245.63,-151 245.63,-187"/>
<text text-anchor="middle" x="169" y="-164.8" font-family="Times,serif" font-size="14.00">CoreUIIconsComponent</text>
</g>
<!-- IconsModule -->
<g id="node2" class="node">
<title>IconsModule</title>
<polygon fill="#8dd3c7" stroke="black" points="297.87,-252 294.87,-256 273.87,-256 270.87,-252 208.13,-252 208.13,-216 297.87,-216 297.87,-252"/>
<text text-anchor="middle" x="253" y="-229.8" font-family="Times,serif" font-size="14.00">IconsModule</text>
</g>
<!-- CoreUIIconsComponent&#45;&gt;IconsModule -->
<g id="edge1" class="edge">
<title>CoreUIIconsComponent&#45;&gt;IconsModule</title>
<path fill="none" stroke="black" d="M226.94,-187.11C226.94,-187.11 226.94,-205.99 226.94,-205.99"/>
<polygon fill="black" stroke="black" points="223.44,-205.99 226.94,-215.99 230.44,-205.99 223.44,-205.99"/>
</g>
<!-- IconSetService -->
<g id="node3" class="node">
<title>IconSetService</title>
<ellipse fill="#fdb462" stroke="black" cx="169" cy="-104" rx="69.48" ry="18"/>
<text text-anchor="middle" x="169" y="-99.8" font-family="Times,serif" font-size="14.00">IconSetService</text>
</g>
<!-- IconSetService&#45;&gt;CoreUIIconsComponent -->
<g id="edge2" class="edge">
<title>IconSetService&#45;&gt;CoreUIIconsComponent</title>
<path fill="none" stroke="black" d="M169,-122.11C169,-122.11 169,-140.99 169,-140.99"/>
<polygon fill="black" stroke="black" points="165.5,-140.99 169,-150.99 172.5,-140.99 165.5,-140.99"/>
</g>
<!-- IconsRoutingModule -->
<g id="node4" class="node">
<title>IconsRoutingModule</title>
<polygon fill="#8dd3c7" stroke="black" points="404.49,-187 401.49,-191 380.49,-191 377.49,-187 269.51,-187 269.51,-151 404.49,-151 404.49,-187"/>
<text text-anchor="middle" x="337" y="-164.8" font-family="Times,serif" font-size="14.00">IconsRoutingModule</text>
</g>
<!-- IconsRoutingModule&#45;&gt;IconsModule -->
<g id="edge3" class="edge">
<title>IconsRoutingModule&#45;&gt;IconsModule</title>
<path fill="none" stroke="black" d="M283.72,-187.11C283.72,-187.11 283.72,-205.99 283.72,-205.99"/>
<polygon fill="black" stroke="black" points="280.22,-205.99 283.72,-215.99 287.22,-205.99 280.22,-205.99"/>
</g>
</g>
</svg>
